<svg width="256" height="73" viewBox="0 0 256 73" fill="none" xmlns="http://www.w3.org/2000/svg">
<path d="M48.0296 10.32C48.0936 10.576 48.1256 10.896 48.1256 11.28C48.1256 12.112 47.7416 12.72 46.9736 13.104C46.5896 13.232 45.8216 13.488 44.6696 13.872C43.5816 14.192 42.6856 14.352 41.9816 14.352C41.4056 14.352 40.9576 14.288 40.6376 14.16C39.9976 13.584 39.2296 13.168 38.3336 12.912C37.4376 12.656 35.5816 12.432 32.7656 12.24C31.9336 12.368 31.1976 12.432 30.5576 12.432C29.9176 12.432 29.4056 12.464 29.0216 12.528C28.5096 14.192 27.8696 15.76 27.1016 17.232C26.8456 18.448 26.4936 19.536 26.0456 20.496C25.5976 21.776 25.4056 22.512 25.4696 22.704C25.2776 22.96 24.6696 24.592 23.6456 27.6C22.6216 30.544 21.6616 33.424 20.7656 36.24C20.1256 38.224 19.6456 39.664 19.3256 40.56C19.0056 41.2 18.5896 42.224 18.0776 43.632C17.6296 44.976 17.3096 45.936 17.1176 46.512L14.7176 53.136C14.2056 54.096 13.5656 55.632 12.7976 57.744C12.0936 59.792 11.5176 61.648 11.0696 63.312C10.3656 65.808 9.72563 67.6 9.14963 68.688C8.63763 69.776 8.18963 70.448 7.80563 70.704C7.42163 70.96 6.87763 71.088 6.17363 71.088C5.14963 71.088 4.25363 70.576 3.48563 69.552C2.71763 68.528 2.33363 67.568 2.33363 66.672C2.33363 65.264 2.81363 62.896 3.77363 59.568C4.79763 56.24 5.75763 53.584 6.65363 51.6C6.90963 50.448 7.13363 49.52 7.32563 48.816C7.58163 48.112 7.74163 47.6 7.80563 47.28C7.99763 47.024 8.28563 46.352 8.66963 45.264C9.11763 44.112 9.46963 43.056 9.72563 42.096C9.91763 40.944 11.9016 34.512 15.6776 22.8L16.3496 20.784C16.9256 19.824 17.4696 18.608 17.9816 17.136C18.4936 16.816 18.7496 16.144 18.7496 15.12C18.7496 14.928 18.8456 14.672 19.0376 14.352C19.2936 14.032 19.4216 13.808 19.4216 13.68C19.4856 13.616 19.5816 13.584 19.7096 13.584C19.7736 13.584 19.8376 13.616 19.9016 13.68C20.0296 13.68 20.2216 13.552 20.4776 13.296H20.3816L15.6776 13.776L13.5656 13.968C9.78963 14.288 7.64563 14.512 7.13363 14.64L5.78963 14.736C3.80563 14.736 2.39763 14.352 1.56563 13.584C0.797626 12.752 0.541625 11.824 0.797626 10.8C0.989625 9.968 1.46963 9.296 2.23763 8.784C3.06963 8.272 4.41363 7.824 6.26963 7.44C6.84563 7.312 7.96563 7.12 9.62963 6.86399L12.2216 6.384L15.4856 6C19.1976 5.424 23.1336 5.04 27.2936 4.848C29.0216 4.784 30.4616 4.72 31.6136 4.65599C32.8296 4.528 33.6296 4.432 34.0136 4.368C34.9096 4.432 36.3496 4.592 38.3336 4.848C40.3816 5.104 41.8536 5.392 42.7496 5.712C44.1576 6.032 45.3096 6.608 46.2056 7.44C47.1016 8.272 47.7096 9.232 48.0296 10.32ZM32.0134 63.984C31.8214 63.6 31.2774 63.088 30.3814 62.448C29.4854 61.808 29.0374 61.424 29.0374 61.296C29.0374 61.04 28.8774 60.688 28.5574 60.24C28.3014 59.728 28.0454 59.28 27.7894 58.896C27.2774 58.384 27.6294 56.72 28.8454 53.904C30.0614 51.088 31.6934 47.76 33.7414 43.92C34.1254 43.536 34.6054 42.864 35.1814 41.904C35.8214 40.944 36.2374 40.4 36.4294 40.272C36.4294 40.016 36.5254 39.792 36.7174 39.6C36.9094 39.344 37.1334 39.216 37.3894 39.216L38.1574 37.68C38.4134 37.104 39.6614 35.728 41.9014 33.552C44.1414 31.376 45.9014 29.904 47.1814 29.136C48.3974 28.304 49.7094 27.888 51.1174 27.888C52.6534 27.888 53.9654 28.336 55.0534 29.232L57.6454 31.44C59.5654 33.04 60.6534 33.968 60.9094 34.224L64.4614 37.392L62.8294 42.192C62.2534 43.92 61.9654 45.552 61.9654 47.088C61.9654 49.52 62.6374 51.792 63.9814 53.904C64.3014 54.608 64.7174 55.152 65.2294 55.536C65.8054 55.92 66.5414 56.176 67.4374 56.304C68.8454 56.56 69.5494 57.264 69.5494 58.416C69.5494 59.824 69.2934 60.88 68.7814 61.584C68.2694 62.288 67.6614 62.736 66.9574 62.928C65.9334 63.056 65.2294 63.12 64.8454 63.12C62.9894 63.12 61.2934 62.64 59.7574 61.68C58.2214 60.72 56.8774 59.088 55.7254 56.784C55.4694 56.4 55.1174 55.696 54.6694 54.672C54.2854 53.648 54.0614 52.944 53.9974 52.56C53.5494 53.2 52.8134 54.032 51.7894 55.056C45.1974 61.712 39.8534 65.04 35.7574 65.04C34.3494 65.04 33.1014 64.688 32.0134 63.984ZM37.2934 56.016C38.3174 56.144 40.3014 54.992 43.2454 52.56C43.5654 52.304 43.9174 52.016 44.3014 51.696C44.6854 51.312 45.1014 50.928 45.5494 50.544C47.3414 49.072 48.7174 47.856 49.6774 46.896C50.7014 45.872 51.7254 44.656 52.7494 43.248L54.8614 39.792C54.2214 38.384 53.6454 37.456 53.1334 37.008C52.6214 36.496 52.1094 36.24 51.5974 36.24C50.3174 36.24 48.7174 37.392 46.7974 39.696C44.8774 41.936 42.5734 45.36 39.8854 49.968C39.1814 51.12 38.6054 52.336 38.1574 53.616C37.7094 54.832 37.4214 55.632 37.2934 56.016ZM105.385 63.696C101.353 63.568 99.3371 61.296 99.3371 56.88C99.3371 55.664 99.4331 54.48 99.6251 53.328C99.7531 51.92 99.8171 50.928 99.8171 50.352V49.872V48.816C99.6251 47.536 99.2091 46.896 98.5691 46.896C97.4171 46.896 95.2731 48.016 92.1371 50.256C89.0651 52.432 85.8331 55.056 82.4411 58.128C81.4171 59.216 80.5531 60.24 79.8491 61.2C79.2091 62.032 78.7291 62.544 78.4091 62.736C78.0891 62.928 77.5771 63.024 76.8731 63.024C75.9771 62.896 74.9531 62.224 73.8011 61.008C72.6491 59.792 71.8811 58.704 71.4971 57.744C71.4971 55.952 71.8171 54.256 72.4571 52.656C73.0971 50.992 74.0571 48.912 75.3371 46.416C75.9131 44.496 76.6491 42.576 77.5451 40.656C78.5051 38.416 79.1771 36.72 79.5611 35.568C80.0091 34.352 80.2971 33.104 80.4251 31.824C80.4251 31.76 80.3931 31.728 80.3291 31.728C80.3291 31.472 80.4251 31.248 80.6171 31.056C80.8091 30.864 81.0331 30.768 81.2891 30.768C81.4171 30.576 81.8011 30.48 82.4411 30.48C84.1051 30.48 85.5451 30.928 86.7611 31.824C87.9771 32.72 88.5851 34.096 88.5851 35.952C88.5851 36.912 88.3931 37.84 88.0091 38.736C87.6891 39.568 87.0491 40.976 86.0891 42.96L85.0331 45.072C84.8411 45.456 84.5531 46.032 84.1691 46.8C83.7851 47.504 83.5931 47.952 83.5931 48.144C85.1931 47.056 87.0811 45.616 89.2571 43.824C92.4571 41.264 95.0811 39.28 97.1291 37.872C99.1771 36.464 100.681 35.76 101.641 35.76C102.473 35.76 103.625 36.24 105.097 37.2C106.633 38.096 107.529 38.928 107.785 39.696C107.785 40.144 107.721 40.816 107.593 41.712C107.529 42.608 107.465 43.408 107.401 44.112L107.497 47.088C107.561 47.6 107.593 48.368 107.593 49.392C107.593 51.44 107.465 52.88 107.209 53.712C107.273 53.776 107.337 53.872 107.401 54C107.465 54.128 107.497 54.224 107.497 54.288L107.401 54.48C107.465 55.12 107.817 56.144 108.457 57.552C109.097 58.96 109.417 59.728 109.417 59.856C109.417 60.56 108.937 61.36 107.977 62.256C107.081 63.088 106.217 63.568 105.385 63.696ZM119.112 63.696C118.28 63.248 117.512 62.672 116.808 61.968C116.168 61.2 115.848 60.496 115.848 59.856C115.848 58.96 115.944 57.808 116.136 56.4C116.392 54.992 116.68 53.712 117 52.56C117.192 50.96 117.384 49.68 117.576 48.72C117.832 47.696 118.248 46.704 118.824 45.744C119.08 44.784 119.528 43.344 120.168 41.424C121.576 36.944 122.536 33.488 123.048 31.056C123.56 29.648 124.008 28.4 124.392 27.312C124.776 26.224 125.128 25.232 125.448 24.336C125.32 24.72 126.12 22.544 127.848 17.808C128.36 16.272 128.712 15.088 128.904 14.256C129.608 11.376 130.408 9.2 131.304 7.72799C131.752 7.088 132.072 6.544 132.264 6.096C132.52 5.648 132.744 5.296 132.936 5.04C133 4.78399 133.32 4.56 133.896 4.368C134.536 4.176 135.176 4.08 135.816 4.08C136.52 4.08 137 4.208 137.256 4.464C137.576 4.336 138.12 4.88 138.888 6.096C139.72 7.248 140.104 8.08 140.04 8.592C140.04 9.424 139.816 10.192 139.368 10.896C139.112 11.152 138.824 11.632 138.504 12.336C138.184 12.976 137.896 13.52 137.64 13.968C137.512 14.416 137.288 15.184 136.968 16.272C136.712 17.296 136.456 18.16 136.2 18.864C135.88 19.632 135.56 20.368 135.24 21.072C134.984 21.712 134.76 22.288 134.568 22.8C134.312 23.632 133.864 24.88 133.224 26.544C132.328 28.72 131.72 30.416 131.4 31.632C131.272 32.016 131.048 32.816 130.728 34.032C129.832 37.232 128.968 39.568 128.136 41.04C127.624 41.872 127.24 42.992 126.984 44.4C126.792 45.808 126.664 46.672 126.6 46.992C125.64 49.872 125.16 51.568 125.16 52.08C125.032 52.656 124.808 53.776 124.488 55.44C124.104 57.488 123.72 58.96 123.336 59.856C123.208 60.816 122.824 61.744 122.184 62.64C121.608 63.536 120.936 63.984 120.168 63.984C119.848 63.984 119.496 63.888 119.112 63.696ZM149.326 26.064C149.134 26.256 148.942 26.352 148.75 26.352C148.494 26.352 148.078 26.16 147.502 25.776C146.862 25.712 145.998 25.168 144.91 24.144C143.886 23.12 143.374 22.448 143.374 22.128C143.31 21.36 143.374 20.272 143.566 18.864C143.758 17.392 144.11 16.08 144.622 14.928C145.198 13.776 145.934 13.168 146.83 13.104C147.278 13.168 147.886 13.328 148.654 13.584C149.422 13.776 150.286 14.064 151.246 14.448C152.462 16.88 153.07 18.96 153.07 20.688C153.07 23.248 151.822 25.04 149.326 26.064ZM140.494 65.904C138.958 65.904 137.614 65.104 136.462 63.504C135.374 61.904 134.702 59.92 134.446 57.552C134.702 55.184 134.894 53.456 135.022 52.368C135.726 49.232 136.59 45.552 137.614 41.328C138.702 37.04 139.342 34.672 139.534 34.224C139.854 33.648 140.366 33.36 141.07 33.36C141.774 33.36 142.542 33.648 143.374 34.224C144.27 34.736 145.006 35.472 145.582 36.432C146.094 37.136 146.35 37.936 146.35 38.832C146.35 40.176 145.71 42.992 144.43 47.28C143.534 50.48 142.958 52.752 142.702 54.096C142.446 55.44 142.35 56.88 142.414 58.416C142.158 61.296 141.902 63.28 141.646 64.368C141.39 65.456 141.006 65.968 140.494 65.904ZM183.932 72.912C182.076 72.912 180.252 72.464 178.46 71.568C176.668 70.736 175.196 69.52 174.044 67.92C172.892 66.32 172.316 64.464 172.316 62.352C172.316 60.624 172.86 59.024 173.948 57.552C175.036 56.08 176.38 55.344 177.98 55.344C179.068 55.344 180.092 55.728 181.052 56.496C180.988 56.816 180.764 57.52 180.38 58.608C180.06 59.696 179.9 60.624 179.9 61.392C179.9 62.416 180.38 63.28 181.34 63.984C182.364 64.624 183.9 64.944 185.948 64.944C192.668 64.944 197.532 63.824 200.54 61.584C203.612 59.344 205.148 56.656 205.148 53.52C205.084 52.176 204.956 51.184 204.764 50.544C204.572 49.84 204.092 48.72 203.324 47.184L201.5 43.632C201.5 43.248 200.892 42.384 199.676 41.04C198.46 39.632 197.66 38.704 197.276 38.256C196.444 36.528 195.74 35.184 195.164 34.224C194.652 33.264 194.012 32.528 193.244 32.016C193.052 31.76 192.796 31.216 192.476 30.384C192.156 29.552 191.932 29.104 191.804 29.04L191.612 28.752L191.132 27.792C190.556 26.512 190.268 25.2 190.268 23.856C190.268 22.192 190.62 20.432 191.324 18.576C192.092 16.656 193.148 14.832 194.492 13.104L194.876 12.624C195.388 11.6 196.636 10.032 198.62 7.92C200.668 5.808 201.884 4.752 202.268 4.752C202.588 4.752 203.324 4.432 204.476 3.792C205.756 3.088 206.876 2.544 207.836 2.16C208.86 1.712 209.884 1.488 210.908 1.488C211.868 1.168 212.668 0.943996 213.308 0.815998C213.948 0.623997 214.588 0.527996 215.228 0.527996L217.34 0.623995L219.452 1.2C222.14 2.16 224.028 3.408 225.116 4.944C226.204 6.48 226.748 8.56 226.748 11.184C226.748 12.208 226.268 13.168 225.308 14.064C224.412 14.96 223.324 15.696 222.044 16.272C220.764 16.784 219.676 17.04 218.78 17.04C218.14 17.04 217.564 16.912 217.052 16.656C215.964 16.592 215.228 16.496 214.844 16.368C214.46 16.176 214.268 16.016 214.268 15.888C214.14 15.888 214.076 15.792 214.076 15.6C214.076 15.216 214.3 15.024 214.748 15.024C215.132 14.768 215.708 14.128 216.476 13.104C217.308 12.08 217.724 11.216 217.724 10.512C217.724 9.488 216.828 8.976 215.036 8.976C211.772 8.976 208.956 9.776 206.588 11.376C204.284 12.912 202.524 14.736 201.308 16.848C200.156 18.96 199.58 20.752 199.58 22.224C199.644 22.544 199.708 23.184 199.772 24.144C199.836 25.104 200.092 26 200.54 26.832C203.036 30.352 205.02 33.104 206.492 35.088C206.812 35.536 207.196 36.048 207.644 36.624C208.092 37.2 208.284 37.552 208.22 37.68V38.064C208.348 38.064 208.86 38.928 209.756 40.656C210.652 42.384 211.1 43.408 211.1 43.728C211.1 43.536 211.356 44.08 211.868 45.36C212.444 46.576 212.956 48.016 213.404 49.68C213.852 51.344 214.076 53.072 214.076 54.864C213.948 56.208 213.5 57.808 212.732 59.664C212.028 61.52 211.164 62.928 210.14 63.888L209.084 64.848C207.612 66 205.724 67.184 203.42 68.4C201.116 69.68 199.132 70.544 197.468 70.992L195.452 71.568C193.98 71.952 192.156 72.272 189.98 72.528C187.804 72.784 185.788 72.912 183.932 72.912ZM230.023 62.64C228.423 61.168 227.239 59.888 226.471 58.8C225.767 57.648 225.287 55.952 225.031 53.712C224.839 52.24 225.095 50 225.799 46.992C226.567 43.92 227.559 40.944 228.775 38.064C229.991 35.12 231.175 33.072 232.327 31.92C233.735 30.128 235.335 29.232 237.127 29.232C237.831 29.232 238.439 29.36 238.951 29.616C239.719 30.448 240.103 31.6 240.103 33.072C240.103 34.544 239.719 35.856 238.951 37.008C237.735 38.672 236.647 40.784 235.687 43.344C234.727 45.904 234.087 48.272 233.767 50.448C233.383 51.664 233.191 52.656 233.191 53.424C233.191 54.128 233.351 54.64 233.671 54.96C234.055 55.28 234.631 55.44 235.399 55.44C237.063 55.44 238.791 54.288 240.583 51.984C242.375 49.68 244.007 46.672 245.479 42.96C245.799 42.128 246.087 41.04 246.343 39.696C246.791 38.16 247.047 37.296 247.111 37.104C247.495 35.76 248.167 34.672 249.127 33.84C250.151 33.008 251.143 32.592 252.103 32.592C252.679 32.592 253.095 32.72 253.351 32.976C255.271 33.808 256.135 35.248 255.943 37.296C255.943 38.704 255.751 39.952 255.367 41.04C254.983 42.064 254.375 43.408 253.543 45.072C252.839 46.288 252.263 47.472 251.815 48.624C250.855 50.864 249.223 53.36 246.919 56.112C244.615 58.8 242.631 60.496 240.967 61.2C238.727 62.608 236.423 63.312 234.055 63.312C232.647 63.312 231.303 63.088 230.023 62.64Z" fill="#4D4D4F"/>
</svg>
